<svg width="57" height="57" viewBox="0 0 57 57" fill="none" xmlns="http://www.w3.org/2000/svg">
<path d="M19.8313 7.12501C22.6338 6.72126 25.6025 9.78501 26.4575 14.0125C27.3125 18.2163 25.7688 21.9688 22.9663 22.3963C20.1875 22.8238 17.195 19.76 16.3163 15.5325C15.4375 11.3288 17.0288 7.57626 19.8313 7.12501V7.12501ZM36.8125 7.12501C39.6388 7.57626 41.2063 11.3288 40.375 15.5325C39.4725 19.76 36.5038 22.8238 33.7013 22.3963C30.875 21.9688 29.3313 18.2163 30.21 14.0125C31.065 9.78501 34.0338 6.72126 36.8125 7.12501V7.12501ZM7.12502 18.05C9.83252 16.8863 13.5138 19 15.4375 22.6813C17.2425 26.4338 16.625 30.3763 13.9413 31.54C11.2575 32.7038 7.60002 30.6138 5.72377 26.885C3.84752 23.1563 4.51252 19.19 7.12502 18.05ZM49.875 18.05C52.4875 19.19 53.1525 23.1563 51.2763 26.885C49.4 30.6138 45.7425 32.7038 43.0588 31.54C40.375 30.3763 39.7575 26.4338 41.5625 22.6813C43.4863 19 47.1675 16.8863 49.875 18.05ZM45.9088 43.6525C46.0038 45.885 44.2938 48.355 42.2513 49.2813C38 51.2288 32.965 47.1913 28.2388 47.1913C23.5125 47.1913 18.43 51.395 14.25 49.2813C11.875 48.1175 10.2363 45.03 10.545 42.465C10.9725 38.9263 15.2238 37.0263 17.7413 34.4375C21.09 31.0888 23.465 24.795 28.2388 24.795C32.9888 24.795 35.5063 30.9938 38.7125 34.4375C41.3488 37.335 45.7425 39.7813 45.9088 43.6525Z" fill="#FBFBFB"/>
</svg>
