<svg width="474" height="796" viewBox="0 0 474 796" fill="none" xmlns="http://www.w3.org/2000/svg">
<ellipse cx="-209" cy="-19.5" rx="683" ry="815.5" fill="white"/>
<g clip-path="url(#clip0)">
<path d="M60.8977 90.4721L60.6509 90.5691L60.5482 90.3105C56.1107 79.1578 53.1779 71.7837 55.5025 66.7559C57.1113 63.2765 60.8139 61.821 64.1421 63.3598C66.7048 64.5446 68.3965 67.4384 68.1845 70.2122L71.2797 71.6433C73.2556 69.6851 76.5561 69.0994 79.1188 70.2843C82.4469 71.8231 83.7365 75.5867 82.1278 79.0662C79.8031 84.0939 72.2855 86.6362 60.8977 90.4721ZM80.7275 66.8049C77.832 65.4661 74.4015 65.5904 71.5661 66.9612C70.7738 63.9131 68.6463 61.2191 65.7508 59.8803C60.6255 57.5106 54.6599 59.8414 52.1744 65.2171C49.1419 71.7758 52.3143 79.7675 57.1279 91.8543L58.4791 95.2664L61.9537 94.0856C74.2801 89.9235 82.4235 87.1637 85.4559 80.6049C87.9414 75.2292 85.8528 69.1746 80.7275 66.8049Z" fill="#DADADA"/>
</g>
<g clip-path="url(#clip1)">
<path d="M71.3358 208.319L71.4678 208.549L71.227 208.689C60.8413 214.706 53.9743 218.684 48.661 217.118C44.9841 216.035 43.0037 212.584 44.0403 209.067C44.8384 206.359 47.4543 204.263 50.2293 204.068L51.1933 200.797C48.9676 199.128 47.9066 195.948 48.7047 193.24C49.7412 189.723 53.2764 187.898 56.9533 188.981C62.2666 190.547 65.8789 197.613 71.3358 208.319ZM45.0277 192.156C44.1259 195.216 44.7496 198.592 46.5196 201.197C43.6198 202.425 41.2651 204.923 40.3633 207.983C38.767 213.4 41.9436 218.961 47.6245 220.635C54.5556 222.678 61.9986 218.373 73.2535 211.847L76.4317 210.012L74.7564 206.747C68.8398 195.16 64.921 187.507 57.9899 185.464C52.309 183.79 46.624 186.74 45.0277 192.156Z" fill="#DADADA"/>
</g>
<g clip-path="url(#clip2)">
<path d="M398.606 63.594L398.855 63.5027L398.951 63.7635C403.132 75.0151 405.895 82.4544 403.456 87.4276C401.768 90.8693 398.033 92.2395 394.741 90.6249C392.206 89.3816 390.581 86.4498 390.856 83.6816L387.795 82.18C385.775 84.0924 382.462 84.6023 379.927 83.359C376.635 81.7443 375.432 77.9521 377.12 74.5105C379.559 69.5373 387.133 67.1679 398.606 63.594ZM378.239 86.8006C381.103 88.2054 384.535 88.1597 387.401 86.8543C388.124 89.9197 390.189 92.6618 393.053 94.0665C398.122 96.5531 404.14 94.3596 406.748 89.0423C409.93 82.5547 406.941 74.4925 402.406 62.2985L401.133 58.8564L397.633 59.9573C385.214 63.8358 377.01 66.4083 373.828 72.8958C371.22 78.2132 373.169 84.3141 378.239 86.8006Z" fill="#DADADA"/>
</g>
<g clip-path="url(#clip3)">
<path d="M369.697 229.017L369.57 229.25L369.325 229.118C358.762 223.417 351.779 219.647 350.333 214.3C349.332 210.599 351.236 207.106 354.775 206.149C357.501 205.412 360.656 206.544 362.274 208.806L365.566 207.916C365.823 205.146 367.977 202.578 370.703 201.841C374.242 200.884 377.648 202.941 378.648 206.641C380.095 211.988 375.964 218.764 369.697 229.017ZM369.702 198.141C366.623 198.973 364.073 201.271 362.779 204.143C360.215 202.315 356.854 201.616 353.774 202.448C348.324 203.923 345.247 209.54 346.793 215.257C348.68 222.232 356.243 226.322 367.694 232.497L370.921 234.245L372.826 231.109C379.604 220.004 384.075 212.659 382.188 205.684C380.642 199.967 375.153 196.666 369.702 198.141Z" fill="#DADADA"/>
</g>
<g clip-path="url(#clip4)">
<path d="M293.697 161.017L293.57 161.25L293.325 161.118C282.762 155.417 275.779 151.647 274.333 146.3C273.332 142.599 275.236 139.106 278.775 138.149C281.501 137.412 284.656 138.544 286.274 140.806L289.566 139.916C289.823 137.146 291.977 134.578 294.703 133.841C298.242 132.884 301.648 134.941 302.648 138.641C304.095 143.988 299.964 150.764 293.697 161.017ZM293.702 130.141C290.623 130.973 288.073 133.271 286.779 136.143C284.215 134.315 280.854 133.616 277.774 134.448C272.324 135.923 269.247 141.54 270.793 147.257C272.68 154.232 280.243 158.322 291.694 164.497L294.921 166.245L296.826 163.109C303.604 152.004 308.075 144.659 306.188 137.684C304.642 131.967 299.153 128.666 293.702 130.141Z" fill="#DADADA"/>
</g>
<g clip-path="url(#clip5)">
<path d="M308.697 420.017L308.57 420.25L308.325 420.118C297.762 414.417 290.779 410.647 289.333 405.3C288.332 401.599 290.236 398.106 293.775 397.149C296.501 396.412 299.656 397.544 301.274 399.806L304.566 398.916C304.823 396.146 306.977 393.578 309.703 392.841C313.242 391.884 316.648 393.941 317.648 397.641C319.095 402.988 314.964 409.764 308.697 420.017ZM308.702 389.141C305.623 389.973 303.073 392.271 301.779 395.143C299.215 393.315 295.854 392.616 292.774 393.448C287.324 394.923 284.247 400.54 285.793 406.257C287.68 413.232 295.243 417.322 306.694 423.497L309.921 425.245L311.826 422.109C318.604 411.004 323.075 403.659 321.188 396.684C319.642 390.967 314.153 387.666 308.702 389.141Z" fill="#DADADA"/>
</g>
<g clip-path="url(#clip6)">
<path d="M201.231 43.3688L201.192 43.1063L201.468 43.0652C213.337 41.2802 221.185 40.1012 225.553 43.5083C228.575 45.8662 229.15 49.8028 226.895 52.6938C225.158 54.9199 221.956 55.9092 219.303 55.072L217.205 57.7607C218.663 60.1301 218.483 63.4773 216.746 65.7034C214.491 68.5944 210.532 68.9943 207.51 66.6364C203.143 63.2293 202.376 55.3305 201.231 43.3688ZM219.768 68.0612C221.731 65.546 222.39 62.1771 221.7 59.1043C224.848 59.0259 227.955 57.5668 229.917 55.0517C233.391 50.5995 232.477 44.2602 227.808 40.6173C222.111 36.1728 213.607 37.4446 200.742 39.3834L197.112 39.9232L197.472 43.5754C198.722 56.5253 199.557 65.0829 205.255 69.5274C209.924 73.1703 216.295 72.5134 219.768 68.0612Z" fill="#DADADA"/>
</g>
<path d="M168.42 161.475L168.222 161.651L168.036 161.444C160.017 152.512 154.716 146.607 155.159 141.085C155.466 137.264 158.437 134.619 162.092 134.912C164.907 135.138 167.494 137.269 168.254 139.945L171.653 140.218C172.831 137.697 175.725 136.007 178.539 136.233C182.194 136.527 184.705 139.612 184.399 143.433C183.955 148.955 177.78 153.939 168.42 161.475ZM178.846 132.412C175.667 132.157 172.49 133.459 170.304 135.725C168.507 133.139 165.579 131.346 162.399 131.091C156.771 130.639 151.979 134.888 151.504 140.792C150.926 147.994 156.665 154.397 165.36 164.075L167.807 166.81L170.66 164.5C180.788 156.334 187.475 150.93 188.053 143.727C188.528 137.823 184.475 132.864 178.846 132.412Z" fill="#DADADA"/>
<path d="M120.811 347.489L120.634 347.686L120.426 347.501C111.468 339.511 105.546 334.229 105.376 328.692C105.258 324.861 107.918 321.902 111.583 321.79C114.405 321.703 117.213 323.534 118.264 326.109L121.673 326.005C122.564 323.369 125.253 321.369 128.075 321.282C131.74 321.169 134.577 323.958 134.695 327.79C134.866 333.326 129.28 338.963 120.811 347.489ZM127.957 317.451C124.769 317.549 121.757 319.195 119.834 321.689C117.762 319.318 114.654 317.86 111.465 317.958C105.821 318.132 101.529 322.885 101.711 328.805C101.933 336.027 108.346 341.755 118.058 350.411L120.793 352.858L123.372 350.248C132.534 341.011 138.583 334.9 138.36 327.677C138.178 321.757 133.601 317.277 127.957 317.451Z" fill="#DADADA"/>
<g clip-path="url(#clip7)">
<path d="M50.255 445.04L50.3715 444.802L50.6219 444.924C61.4275 450.15 68.5711 453.606 70.2532 458.884C71.4173 462.536 69.6702 466.111 66.1766 467.224C63.4866 468.081 60.2845 467.09 58.5671 464.902L55.3181 465.937C55.1839 468.716 53.1458 471.377 50.4558 472.234C46.9623 473.348 43.4691 471.444 42.305 467.791C40.623 462.514 44.449 455.561 50.255 445.04ZM51.6199 475.887C54.6592 474.918 57.1049 472.509 58.2697 469.583C60.9128 471.296 64.3013 471.845 67.3407 470.876C72.7207 469.162 75.5452 463.413 73.7467 457.77C71.5525 450.886 63.815 447.136 52.1011 441.475L48.8 439.872L47.0355 443.089C40.7578 454.485 36.6173 462.02 38.8115 468.905C40.61 474.548 46.2398 477.602 51.6199 475.887Z" fill="#DADADA"/>
</g>
<g clip-path="url(#clip8)">
<path d="M217.959 231.689L218.075 231.451L218.325 231.572C229.131 236.798 236.275 240.255 237.957 245.532C239.121 249.185 237.374 252.759 233.88 253.872C231.19 254.73 227.988 253.739 226.271 251.55L223.022 252.586C222.887 255.364 220.849 258.026 218.159 258.883C214.666 259.996 211.173 258.092 210.009 254.44C208.326 249.162 212.153 242.21 217.959 231.689ZM219.323 262.535C222.363 261.567 224.808 259.158 225.973 256.232C228.616 257.944 232.005 258.493 235.044 257.525C240.424 255.81 243.249 250.062 241.45 244.419C239.256 237.534 231.518 233.784 219.805 228.123L216.504 226.52L214.739 229.738C208.461 241.133 204.321 248.669 206.515 255.553C208.313 261.196 213.943 264.25 219.323 262.535Z" fill="#DADADA"/>
</g>
<path d="M201.485 434.956L201.683 435.132L201.499 435.34C193.559 444.343 188.31 450.294 182.774 450.495C178.943 450.634 175.97 447.991 175.837 444.326C175.735 441.505 177.55 438.687 180.12 437.621L179.996 434.214C177.356 433.337 175.341 430.659 175.238 427.837C175.105 424.173 177.878 421.32 181.709 421.181C187.245 420.98 192.912 426.535 201.485 434.956ZM171.407 427.976C171.523 431.164 173.186 434.168 175.691 436.076C173.331 438.162 171.891 441.278 172.006 444.465C172.211 450.108 176.989 454.374 182.907 454.159C190.128 453.897 195.82 447.453 204.423 437.692L206.854 434.944L204.23 432.379C194.942 423.269 188.797 417.255 181.576 417.517C175.657 417.732 171.202 422.333 171.407 427.976Z" fill="#DADADA"/>
<g clip-path="url(#clip9)">
<path d="M49.5124 653.295L49.3635 653.514L49.1328 653.359C39.1709 646.663 32.5852 642.235 31.6632 636.773C31.0251 632.993 33.2582 629.7 36.8737 629.09C39.6577 628.62 42.6883 630.052 44.0803 632.461L47.4428 631.893C47.967 629.161 50.3596 626.813 53.1435 626.343C56.759 625.733 59.9492 628.11 60.5873 631.89C61.5093 637.352 56.7422 643.696 49.5124 653.295ZM52.5054 622.564C49.3599 623.095 46.5994 625.135 45.0341 627.868C42.6585 625.8 39.3811 624.779 36.2356 625.31C30.6677 626.25 27.0619 631.543 28.0477 637.383C29.2505 644.508 36.3827 649.31 47.1825 656.565L50.2249 658.617L52.425 655.68C60.2451 645.282 65.4056 638.405 64.2028 631.28C63.217 625.44 58.0733 621.624 52.5054 622.564Z" fill="#DADADA"/>
</g>
<g clip-path="url(#clip10)">
<path d="M133.71 597.408L133.502 597.573L133.328 597.355C125.829 587.983 120.872 581.786 121.628 576.299C122.152 572.501 125.268 570.028 128.901 570.529C131.698 570.914 134.16 573.188 134.767 575.903L138.145 576.369C139.463 573.919 142.449 572.396 145.246 572.781C148.879 573.282 151.21 576.505 150.687 580.303C149.931 585.79 143.483 590.416 133.71 597.408ZM145.77 568.984C142.609 568.548 139.364 569.668 137.053 571.807C135.405 569.123 132.584 567.167 129.424 566.731C123.83 565.961 118.805 569.931 117.996 575.798C117.01 582.956 122.376 589.674 130.508 599.83L132.796 602.699L135.774 600.556C146.35 592.978 153.333 587.962 154.319 580.803C155.128 574.936 151.363 569.755 145.77 568.984Z" fill="#DADADA"/>
</g>
<defs>
<clipPath id="clip0">
<rect width="44" height="46" fill="white" transform="translate(55.6833 48.8907) rotate(24.8136)"/>
</clipPath>
<clipPath id="clip1">
<rect width="44" height="46" fill="white" transform="translate(30.9608 219.547) rotate(-73.579)"/>
</clipPath>
<clipPath id="clip2">
<rect width="44" height="46" fill="white" transform="translate(402.866 105.284) rotate(-153.873)"/>
</clipPath>
<clipPath id="clip3">
<rect width="44" height="46" fill="white" transform="translate(339 200.488) rotate(-15.1345)"/>
</clipPath>
<clipPath id="clip4">
<rect width="44" height="46" fill="white" transform="translate(263 132.488) rotate(-15.1345)"/>
</clipPath>
<clipPath id="clip5">
<rect width="44" height="46" fill="white" transform="translate(278 391.488) rotate(-15.1345)"/>
</clipPath>
<clipPath id="clip6">
<rect width="44" height="46" fill="white" transform="translate(242.908 47.7471) rotate(127.958)"/>
</clipPath>
<clipPath id="clip7">
<rect width="44" height="46" fill="white" transform="translate(82.1875 472.179) rotate(162.322)"/>
</clipPath>
<clipPath id="clip8">
<rect width="44" height="46" fill="white" transform="translate(249.891 258.828) rotate(162.322)"/>
</clipPath>
<clipPath id="clip9">
<rect width="44" height="46" fill="white" transform="translate(21.7203 621.929) rotate(-9.58182)"/>
</clipPath>
<clipPath id="clip10">
<rect width="44" height="46" fill="white" transform="translate(116.588 559.158) rotate(7.84588)"/>
</clipPath>
</defs>
</svg>
